<?xml version="1.0" encoding="utf-8"?>
<!-- Generator: Adobe Illustrator 16.0.0, SVG Export Plug-In . SVG Version: 6.00 Build 0)  -->
<!DOCTYPE svg PUBLIC "-//W3C//DTD SVG 1.1//EN" "http://www.w3.org/Graphics/SVG/1.1/DTD/svg11.dtd">
<svg version="1.1" xmlns="http://www.w3.org/2000/svg" xmlns:xlink="http://www.w3.org/1999/xlink" x="0px" y="0px"
	 width="423.421px" height="341.896px" viewBox="0 0 423.421 341.896" enable-background="new 0 0 423.421 341.896"
	 xml:space="preserve">
<g id="Layer_2" display="none">
	<rect x="-4.139" y="-5.972" display="inline" fill="#BE1622" width="434.737" height="352.631"/>
</g>
<g id="Layer_1">
	<g id="XMLID_1_">
		<g>
			<polygon fill="#B2DFF2" points="340.519,136.068 275.861,248.062 275.78,248.062 211.029,136.068 			"/>
			<polygon fill="#1D71B8" points="146.465,23.94 275.499,23.94 210.962,135.961 146.332,24.168 			"/>
			<polygon fill="#00A19A" points="146.332,24.168 210.962,135.961 210.895,136.068 81.808,136.068 81.768,136.001 			"/>
			<polygon fill="#312783" points="340.519,136.068 211.029,136.068 210.962,135.961 275.499,23.94 275.861,23.94 340.559,136.001 
							"/>
			<polygon fill="#FFFFFF" points="211.029,136.068 275.78,248.062 146.465,248.062 146.425,247.982 210.895,136.068 			"/>
			<polygon fill="#36A9E1" points="210.895,136.068 146.425,247.982 81.808,136.068 			"/>
		</g>
		<g>
		</g>
	</g>
	<g>
		<path fill="#1D71B8" d="M97.101,303.613l18.182-46.715h9.721l18.182,46.715h-9.975l-4.861-12.469h-19.316l-4.861,12.469H97.101z
			 M111.431,284.926h14.52l-7.26-18.621L111.431,284.926z"/>
		<path fill="#1D71B8" d="M149.814,303.613v-46.715h12.878l11.236,32.857l11.585-32.857h11.3v46.715h-8.965v-35.258l-11.395,32.133
			h-7.828l-11.174-32.605v35.73H149.814z"/>
		<path fill="#1D71B8" d="M208.113,256.898h9.722v28.629c0,4.523,0.746,7.791,2.241,9.801c1.493,2.008,3.902,3.014,7.228,3.014
			c3.178,0,5.477-0.957,6.897-2.873c1.42-1.914,2.13-4.998,2.13-9.248v-29.322h8.46v28.691c0,4.314-0.41,7.602-1.231,9.863
			c-0.82,2.262-2.314,4.225-4.482,5.887c-2.967,2.293-6.954,3.441-11.963,3.441c-5.365,0-9.68-1.221-12.941-3.662
			c-2.251-1.684-3.824-3.678-4.719-5.98c-0.895-2.305-1.341-5.52-1.341-9.645V256.898z"/>
		<path fill="#1D71B8" d="M253.471,303.203v-8.018c5.029,2.104,9.332,3.156,12.909,3.156c2.505,0,4.478-0.557,5.919-1.674
			c1.441-1.115,2.162-2.629,2.162-4.545c0-1.516-0.453-2.793-1.357-3.834c-0.905-1.043-2.62-2.279-5.145-3.709l-3.125-1.736
			c-4.188-2.357-7.145-4.613-8.87-6.771c-1.726-2.156-2.588-4.676-2.588-7.559c0-3.852,1.415-6.945,4.245-9.281
			c2.83-2.334,6.57-3.502,11.222-3.502c3.725,0,7.922,0.535,12.594,1.609v7.48c-4.777-1.789-8.554-2.684-11.332-2.684
			c-2.146,0-3.866,0.479-5.16,1.438c-1.294,0.957-1.941,2.215-1.941,3.771c0,1.283,0.452,2.41,1.357,3.377
			c0.904,0.969,2.608,2.158,5.113,3.566l3.346,1.863c4.503,2.525,7.607,4.85,9.312,6.975c1.704,2.127,2.556,4.715,2.556,7.766
			c0,4.334-1.609,7.732-4.829,10.195c-3.22,2.461-7.66,3.693-13.32,3.693C262.792,304.781,258.437,304.254,253.471,303.203z"/>
		<path fill="#1D71B8" d="M293.021,303.613v-46.715h29.195v6.406h-19.475v13.037h15.973v6.25h-15.973v14.393h20.959v6.629H293.021z"
			/>
	</g>
	
		<line fill="none" stroke="#FFFFFF" stroke-width="3.5802" stroke-miterlimit="10" x1="172.994" y1="198.509" x2="249.354" y2="198.509"/>
	<polygon fill="#29235C" points="157.362,248.084 210.756,153.086 264.15,248.084 	"/>
	<polygon fill="none" stroke="#FFFFFF" stroke-width="8.9544" stroke-miterlimit="10" points="173.535,200.812 136.205,135.979 
		173.535,71.147 248.191,71.147 285.023,136.145 247.693,200.979 	"/>
</g>
</svg>
