<?xml version="1.0" encoding="UTF-8" standalone="no"?>
<!-- Created with Inkscape (http://www.inkscape.org/) -->

<svg
   xmlns:dc="http://purl.org/dc/elements/1.1/"
   xmlns:cc="http://creativecommons.org/ns#"
   xmlns:rdf="http://www.w3.org/1999/02/22-rdf-syntax-ns#"
   xmlns:svg="http://www.w3.org/2000/svg"
   xmlns="http://www.w3.org/2000/svg"
   xmlns:sodipodi="http://sodipodi.sourceforge.net/DTD/sodipodi-0.dtd"
   xmlns:inkscape="http://www.inkscape.org/namespaces/inkscape"
   sodipodi:docname="boundaries1.svg"
   inkscape:version="0.48.1 r9760"
   version="1.1"
   id="svg2"
   height="259.31485"
   width="329.08984">
  <sodipodi:namedview
     id="base"
     pagecolor="#ffffff"
     bordercolor="#666666"
     borderopacity="1.0"
     inkscape:pageopacity="0.0"
     inkscape:pageshadow="2"
     inkscape:zoom="2.2729835"
     inkscape:cx="203.4059"
     inkscape:cy="130.4453"
     inkscape:document-units="px"
     inkscape:current-layer="layer1"
     showgrid="false"
     inkscape:window-width="1920"
     inkscape:window-height="1148"
     inkscape:window-x="0"
     inkscape:window-y="26"
     inkscape:window-maximized="1"
     borderlayer="false"
     showborder="false"
     fit-margin-top="0"
     fit-margin-left="0"
     fit-margin-right="0"
     fit-margin-bottom="0" />
  <defs
     id="defs4" />
  <metadata
     id="metadata7">
    <rdf:RDF>
      <cc:Work
         rdf:about="">
        <dc:format>image/svg+xml</dc:format>
        <dc:type
           rdf:resource="http://purl.org/dc/dcmitype/StillImage" />
        <dc:title></dc:title>
      </cc:Work>
    </rdf:RDF>
  </metadata>
  <g
     inkscape:label="Layer 1"
     inkscape:groupmode="layer"
     id="layer1"
     transform="translate(-106.78291,-80.382627)">
    <rect
       style="fill:none;stroke:#000000;stroke-width:1.35354328;stroke-linecap:round;stroke-linejoin:round;stroke-miterlimit:4;stroke-opacity:1;stroke-dasharray:none"
       id="rect2985"
       width="14.285714"
       height="14.285714"
       x="248.14935"
       y="143.22528" />
    <rect
       style="fill:none;stroke:#000000;stroke-width:1.35354328;stroke-linecap:round;stroke-linejoin:round;stroke-miterlimit:4;stroke-opacity:1;stroke-dasharray:none"
       id="rect2985-1"
       width="14.285714"
       height="14.285714"
       x="263.7886"
       y="143.22528" />
    <rect
       style="fill:none;stroke:#000000;stroke-width:1.35354328;stroke-linecap:round;stroke-linejoin:round;stroke-miterlimit:4;stroke-opacity:1;stroke-dasharray:none"
       id="rect2985-6"
       width="14.285714"
       height="14.285714"
       x="295.06714"
       y="143.22528" />
    <rect
       style="fill:none;stroke:#000000;stroke-width:1.35354328;stroke-linecap:round;stroke-linejoin:round;stroke-miterlimit:4;stroke-opacity:1;stroke-dasharray:none"
       id="rect2985-1-4"
       width="14.285714"
       height="14.285714"
       x="326.34564"
       y="143.22528" />
    <rect
       style="fill:none;stroke:#000000;stroke-width:1.35354328;stroke-linecap:round;stroke-linejoin:round;stroke-miterlimit:4;stroke-opacity:1;stroke-dasharray:none"
       id="rect2985-12"
       width="14.285714"
       height="14.285714"
       x="357.62415"
       y="143.27153" />
    <rect
       style="fill:none;stroke:#ff0000;stroke-width:1.35354328;stroke-linecap:round;stroke-linejoin:round;stroke-miterlimit:4;stroke-opacity:1;stroke-dasharray:none"
       id="rect2985-1-1"
       width="14.285714"
       height="14.285714"
       x="373.26343"
       y="143.27153" />
    <rect
       style="fill:none;stroke:#ff0000;stroke-width:1.35354328;stroke-linecap:round;stroke-linejoin:round;stroke-miterlimit:4;stroke-opacity:1;stroke-dasharray:none"
       id="rect2985-6-6"
       width="14.285714"
       height="14.285714"
       x="388.47247"
       y="143.17905" />
    <rect
       style="fill:none;stroke:#ff0000;stroke-width:1.35354328;stroke-linecap:round;stroke-linejoin:round;stroke-miterlimit:4;stroke-opacity:1;stroke-dasharray:none"
       id="rect2985-1-4-1"
       width="14.285714"
       height="14.285714"
       x="404.11172"
       y="143.17905" />
    <rect
       style="fill:none;stroke:#ff0000;stroke-width:1.35354328;stroke-linecap:round;stroke-linejoin:round;stroke-miterlimit:4;stroke-opacity:1;stroke-dasharray:none"
       id="rect2985-8"
       width="14.285714"
       height="14.285714"
       x="185.59233"
       y="143.22528" />
    <rect
       style="fill:none;stroke:#ff0000;stroke-width:1.35354328;stroke-linecap:round;stroke-linejoin:round;stroke-miterlimit:4;stroke-opacity:1;stroke-dasharray:none"
       id="rect2985-1-3"
       width="14.285714"
       height="14.285714"
       x="201.23158"
       y="143.22528" />
    <rect
       style="fill:none;stroke:#ff0000;stroke-width:1.35354328;stroke-linecap:round;stroke-linejoin:round;stroke-miterlimit:4;stroke-opacity:1;stroke-dasharray:none"
       id="rect2985-6-7"
       width="14.285714"
       height="14.285714"
       x="216.87083"
       y="143.22528" />
    <rect
       style="fill:none;stroke:#ff0000;stroke-width:1.35354328;stroke-linecap:round;stroke-linejoin:round;stroke-miterlimit:4;stroke-opacity:1;stroke-dasharray:none"
       id="rect2985-1-4-6"
       width="14.285714"
       height="14.285714"
       x="232.5101"
       y="143.22528" />
    <rect
       style="fill:none;stroke:#000000;stroke-width:1.35354328;stroke-linecap:round;stroke-linejoin:round;stroke-miterlimit:4;stroke-opacity:1;stroke-dasharray:none"
       id="rect2985-0"
       width="14.285714"
       height="14.285714"
       x="279.42786"
       y="143.22528" />
    <rect
       style="fill:none;stroke:#000000;stroke-width:1.35354328;stroke-linecap:round;stroke-linejoin:round;stroke-miterlimit:4;stroke-opacity:1;stroke-dasharray:none"
       id="rect2985-1-0"
       width="14.285714"
       height="14.285714"
       x="310.70639"
       y="143.22528" />
    <rect
       style="fill:none;stroke:#000000;stroke-width:1.35354328;stroke-linecap:round;stroke-linejoin:round;stroke-miterlimit:4;stroke-opacity:1;stroke-dasharray:none"
       id="rect2985-6-62"
       width="14.285714"
       height="14.285714"
       x="341.98489"
       y="143.22528" />
    <rect
       style="fill:none;stroke:#ff0000;stroke-width:1.35354328;stroke-linecap:round;stroke-linejoin:round;stroke-miterlimit:4;stroke-opacity:1;stroke-dasharray:none"
       id="rect2985-1-4-0"
       width="14.285714"
       height="14.285714"
       x="419.75098"
       y="143.22528" />
    <g
       transform="translate(173.14918,173.62317)"
       id="g3889">
      <rect
         style="fill:none;stroke:#000000;stroke-width:1.35354328;stroke-linecap:round;stroke-linejoin:round;stroke-miterlimit:4;stroke-opacity:1;stroke-dasharray:none"
         id="rect3891"
         width="14.285714"
         height="14.285714"
         x="75.000175"
         y="60.333847" />
      <rect
         style="fill:none;stroke:#000000;stroke-width:1.35354328;stroke-linecap:round;stroke-linejoin:round;stroke-miterlimit:4;stroke-opacity:1;stroke-dasharray:none"
         id="rect3893"
         width="14.285714"
         height="14.285714"
         x="90.639435"
         y="60.333847" />
      <rect
         style="fill:none;stroke:#000000;stroke-width:1.35354328;stroke-linecap:round;stroke-linejoin:round;stroke-miterlimit:4;stroke-opacity:1;stroke-dasharray:none"
         id="rect3895"
         width="14.285714"
         height="14.285714"
         x="121.91795"
         y="60.333847" />
      <rect
         style="fill:none;stroke:#000000;stroke-width:1.35354328;stroke-linecap:round;stroke-linejoin:round;stroke-miterlimit:4;stroke-opacity:1;stroke-dasharray:none"
         id="rect3897"
         width="14.285714"
         height="14.285714"
         x="153.19646"
         y="60.333847" />
      <rect
         style="fill:none;stroke:#000000;stroke-width:1.35354328;stroke-linecap:round;stroke-linejoin:round;stroke-miterlimit:4;stroke-opacity:1;stroke-dasharray:none"
         id="rect3899"
         width="14.285714"
         height="14.285714"
         x="184.47498"
         y="60.380089" />
      <rect
         style="fill:none;stroke:#ff0000;stroke-width:1.35354328;stroke-linecap:round;stroke-linejoin:round;stroke-miterlimit:4;stroke-opacity:1;stroke-dasharray:none"
         id="rect3901"
         width="14.285714"
         height="14.285714"
         x="200.11424"
         y="60.380089" />
      <rect
         style="fill:none;stroke:#ff0000;stroke-width:1.35354328;stroke-linecap:round;stroke-linejoin:round;stroke-miterlimit:4;stroke-opacity:1;stroke-dasharray:none"
         id="rect3903"
         width="14.285714"
         height="14.285714"
         x="215.32329"
         y="60.287609" />
      <rect
         style="fill:none;stroke:#ff0000;stroke-width:1.35354328;stroke-linecap:round;stroke-linejoin:round;stroke-miterlimit:4;stroke-opacity:1;stroke-dasharray:none"
         id="rect3905"
         width="14.285714"
         height="14.285714"
         x="230.96255"
         y="60.287609" />
      <rect
         style="fill:none;stroke:#ff0000;stroke-width:1.35354328;stroke-linecap:round;stroke-linejoin:round;stroke-miterlimit:4;stroke-opacity:1;stroke-dasharray:none"
         id="rect3907"
         width="14.285714"
         height="14.285714"
         x="12.443147"
         y="60.333847" />
      <rect
         style="fill:none;stroke:#ff0000;stroke-width:1.35354328;stroke-linecap:round;stroke-linejoin:round;stroke-miterlimit:4;stroke-opacity:1;stroke-dasharray:none"
         id="rect3909"
         width="14.285714"
         height="14.285714"
         x="28.082405"
         y="60.333847" />
      <rect
         style="fill:none;stroke:#ff0000;stroke-width:1.35354328;stroke-linecap:round;stroke-linejoin:round;stroke-miterlimit:4;stroke-opacity:1;stroke-dasharray:none"
         id="rect3911"
         width="14.285714"
         height="14.285714"
         x="43.721661"
         y="60.333847" />
      <rect
         style="fill:none;stroke:#ff0000;stroke-width:1.35354328;stroke-linecap:round;stroke-linejoin:round;stroke-miterlimit:4;stroke-opacity:1;stroke-dasharray:none"
         id="rect3913"
         width="14.285714"
         height="14.285714"
         x="59.36092"
         y="60.333847" />
      <rect
         style="fill:none;stroke:#000000;stroke-width:1.35354328;stroke-linecap:round;stroke-linejoin:round;stroke-miterlimit:4;stroke-opacity:1;stroke-dasharray:none"
         id="rect3915"
         width="14.285714"
         height="14.285714"
         x="106.27869"
         y="60.333847" />
      <rect
         style="fill:none;stroke:#000000;stroke-width:1.35354328;stroke-linecap:round;stroke-linejoin:round;stroke-miterlimit:4;stroke-opacity:1;stroke-dasharray:none"
         id="rect3917"
         width="14.285714"
         height="14.285714"
         x="137.55721"
         y="60.333847" />
      <rect
         style="fill:none;stroke:#000000;stroke-width:1.35354328;stroke-linecap:round;stroke-linejoin:round;stroke-miterlimit:4;stroke-opacity:1;stroke-dasharray:none"
         id="rect3919"
         width="14.285714"
         height="14.285714"
         x="168.83572"
         y="60.333847" />
      <rect
         style="fill:none;stroke:#ff0000;stroke-width:1.35354328;stroke-linecap:round;stroke-linejoin:round;stroke-miterlimit:4;stroke-opacity:1;stroke-dasharray:none"
         id="rect3921"
         width="14.285714"
         height="14.285714"
         x="246.60181"
         y="60.333847" />
    </g>
    <g
       id="g3923"
       transform="translate(173.14918,264.35491)">
      <rect
         y="60.333847"
         x="75.000175"
         height="14.285714"
         width="14.285714"
         id="rect3925"
         style="fill:none;stroke:#000000;stroke-width:1.35354328;stroke-linecap:round;stroke-linejoin:round;stroke-miterlimit:4;stroke-opacity:1;stroke-dasharray:none" />
      <rect
         y="60.333847"
         x="90.639435"
         height="14.285714"
         width="14.285714"
         id="rect3927"
         style="fill:none;stroke:#000000;stroke-width:1.35354328;stroke-linecap:round;stroke-linejoin:round;stroke-miterlimit:4;stroke-opacity:1;stroke-dasharray:none" />
      <rect
         y="60.333847"
         x="121.91795"
         height="14.285714"
         width="14.285714"
         id="rect3929"
         style="fill:none;stroke:#000000;stroke-width:1.35354328;stroke-linecap:round;stroke-linejoin:round;stroke-miterlimit:4;stroke-opacity:1;stroke-dasharray:none" />
      <rect
         y="60.333847"
         x="153.19646"
         height="14.285714"
         width="14.285714"
         id="rect3931"
         style="fill:none;stroke:#000000;stroke-width:1.35354328;stroke-linecap:round;stroke-linejoin:round;stroke-miterlimit:4;stroke-opacity:1;stroke-dasharray:none" />
      <rect
         y="60.380089"
         x="184.47498"
         height="14.285714"
         width="14.285714"
         id="rect3933"
         style="fill:none;stroke:#000000;stroke-width:1.35354328;stroke-linecap:round;stroke-linejoin:round;stroke-miterlimit:4;stroke-opacity:1;stroke-dasharray:none" />
      <rect
         y="60.380089"
         x="200.11424"
         height="14.285714"
         width="14.285714"
         id="rect3935"
         style="fill:none;stroke:#ff0000;stroke-width:1.35354328;stroke-linecap:round;stroke-linejoin:round;stroke-miterlimit:4;stroke-opacity:1;stroke-dasharray:none" />
      <rect
         y="60.287609"
         x="215.32329"
         height="14.285714"
         width="14.285714"
         id="rect3937"
         style="fill:none;stroke:#ff0000;stroke-width:1.35354328;stroke-linecap:round;stroke-linejoin:round;stroke-miterlimit:4;stroke-opacity:1;stroke-dasharray:none" />
      <rect
         y="60.287609"
         x="230.96255"
         height="14.285714"
         width="14.285714"
         id="rect3939"
         style="fill:none;stroke:#ff0000;stroke-width:1.35354328;stroke-linecap:round;stroke-linejoin:round;stroke-miterlimit:4;stroke-opacity:1;stroke-dasharray:none" />
      <rect
         y="60.333847"
         x="12.443147"
         height="14.285714"
         width="14.285714"
         id="rect3941"
         style="fill:none;stroke:#ff0000;stroke-width:1.35354328;stroke-linecap:round;stroke-linejoin:round;stroke-miterlimit:4;stroke-opacity:1;stroke-dasharray:none" />
      <rect
         y="60.333847"
         x="28.082405"
         height="14.285714"
         width="14.285714"
         id="rect3943"
         style="fill:none;stroke:#ff0000;stroke-width:1.35354328;stroke-linecap:round;stroke-linejoin:round;stroke-miterlimit:4;stroke-opacity:1;stroke-dasharray:none" />
      <rect
         y="60.333847"
         x="43.721661"
         height="14.285714"
         width="14.285714"
         id="rect3945"
         style="fill:none;stroke:#ff0000;stroke-width:1.35354328;stroke-linecap:round;stroke-linejoin:round;stroke-miterlimit:4;stroke-opacity:1;stroke-dasharray:none" />
      <rect
         y="60.333847"
         x="59.36092"
         height="14.285714"
         width="14.285714"
         id="rect3947"
         style="fill:none;stroke:#ff0000;stroke-width:1.35354328;stroke-linecap:round;stroke-linejoin:round;stroke-miterlimit:4;stroke-opacity:1;stroke-dasharray:none" />
      <rect
         y="60.333847"
         x="106.27869"
         height="14.285714"
         width="14.285714"
         id="rect3949"
         style="fill:none;stroke:#000000;stroke-width:1.35354328;stroke-linecap:round;stroke-linejoin:round;stroke-miterlimit:4;stroke-opacity:1;stroke-dasharray:none" />
      <rect
         y="60.333847"
         x="137.55721"
         height="14.285714"
         width="14.285714"
         id="rect3951"
         style="fill:none;stroke:#000000;stroke-width:1.35354328;stroke-linecap:round;stroke-linejoin:round;stroke-miterlimit:4;stroke-opacity:1;stroke-dasharray:none" />
      <rect
         y="60.333847"
         x="168.83572"
         height="14.285714"
         width="14.285714"
         id="rect3953"
         style="fill:none;stroke:#000000;stroke-width:1.35354328;stroke-linecap:round;stroke-linejoin:round;stroke-miterlimit:4;stroke-opacity:1;stroke-dasharray:none" />
      <rect
         y="60.333847"
         x="246.60181"
         height="14.285714"
         width="14.285714"
         id="rect3955"
         style="fill:none;stroke:#ff0000;stroke-width:1.35354328;stroke-linecap:round;stroke-linejoin:round;stroke-miterlimit:4;stroke-opacity:1;stroke-dasharray:none" />
    </g>
    <path
       style="fill:none;stroke:#000000;stroke-width:1.4882313;stroke-linecap:round;stroke-linejoin:round;stroke-miterlimit:4;stroke-opacity:1;stroke-dasharray:none;stroke-dashoffset:0"
       d="m 249.27629,81.126743 c 1.41689,2.18e-4 2.83379,0.218566 4.25068,0.649969 1.41689,0.431405 2.83378,1.076663 4.25068,1.919517 1.41689,0.842855 2.83378,1.884418 4.25067,3.099311 1.4169,1.214893 2.83379,2.604058 4.25068,4.134183 1.4169,1.530125 2.83379,3.201936 4.25068,4.975745 1.41689,1.77381 2.83379,3.650094 4.25068,5.584642 1.41689,1.93456 2.83379,3.92759 4.25068,5.93243 1.41689,2.00483 2.83378,4.02141 4.25068,6.00279 1.41689,1.98138 2.83378,3.92722 4.25067,5.79249 1.4169,1.86527 2.83379,3.64938 4.25068,5.31133 1.4169,1.66195 2.83379,3.20091 4.25068,4.58182 1.41689,1.38093 2.83379,2.60277 4.25068,3.63808 1.41689,1.03531 2.83379,1.88291 4.25068,2.52421 1.41689,0.64129 2.83378,1.07502 4.25068,1.29232 1.41689,0.2173 2.83378,0.21686 4.25067,0 1.4169,-0.21686 2.83379,-0.65143 4.25068,-1.29232 1.4169,-0.64089 2.83379,-1.48927 4.25068,-2.52421 1.41689,-1.03494 2.83379,-2.25747 4.25068,-3.63808 1.41689,-1.38059 2.83378,-2.92011 4.25068,-4.58182 1.41689,-1.66171 2.83378,-3.44622 4.25068,-5.31133 1.41689,-1.86511 2.83378,-3.81118 4.25067,-5.79249 1.4169,-1.98131 2.83379,-3.99793 4.25068,-6.00279 1.4169,-2.00487 2.83379,-3.99775 4.25068,-5.93243 1.41689,-1.934663 2.83379,-3.810628 4.25068,-5.584642 1.41689,-1.774013 2.83378,-3.445338 4.25068,-4.975745 1.41689,-1.530407 2.83378,-2.918944 4.25068,-4.134183 1.41689,-1.215239 2.83378,-2.256061 4.25067,-3.099311 1.4169,-0.843249 2.83379,-1.487687 4.25068,-1.919517 1.41689,-0.431829 2.83379,-0.649751 4.25068,-0.649969"
       title="t cos(t)"
       id="path8033"
       inkscape:connector-curvature="0" />
    <path
       style="fill:none;stroke:#ff0000;stroke-width:1.4882313;stroke-linecap:round;stroke-linejoin:round;stroke-miterlimit:4;stroke-opacity:1;stroke-dasharray:none;stroke-dashoffset:0"
       d="m 372.4624,81.126743 c 1.41689,2.18e-4 2.83379,0.218566 4.25068,0.649969 1.41689,0.431405 2.83378,1.076663 4.25068,1.919517 1.41689,0.842855 2.83378,1.884418 4.25067,3.099311 1.4169,1.214893 2.83379,2.604058 4.25068,4.134183 1.4169,1.530125 2.83379,3.201936 4.25068,4.975745 1.41689,1.77381 2.83379,3.650094 4.25068,5.584642 1.41689,1.93456 2.83379,3.92759 4.25068,5.93243 1.41689,2.00483 2.83378,4.02141 4.25068,6.00279 1.41689,1.98138 2.83378,3.92722 4.25067,5.79249 1.4169,1.86527 2.83379,3.64938 4.25068,5.31133 1.4169,1.66195 2.83379,3.20091 4.25068,4.58182 1.41689,1.38093 2.83379,2.60277 4.25068,3.63808 1.41689,1.03531 2.83379,1.88291 4.25068,2.52421 1.41689,0.64129 2.83378,1.07502 4.25068,1.29232 1.05225,0.16138 2.1045,0.20267 3.15675,0.12441"
       id="path8224"
       inkscape:connector-curvature="0" />
    <path
       style="fill:none;stroke:#ff0000;stroke-width:1.4882313;stroke-linecap:round;stroke-linejoin:round;stroke-miterlimit:4;stroke-opacity:1;stroke-dasharray:none;stroke-dashoffset:0"
       d="m 184.35426,136.20559 c 0.56179,0.15365 1.12357,0.27383 1.68536,0.35999 1.41689,0.2173 2.83378,0.21686 4.25067,0 1.4169,-0.21686 2.83379,-0.65143 4.25068,-1.29232 1.4169,-0.64089 2.83379,-1.48927 4.25068,-2.52421 1.41689,-1.03494 2.83379,-2.25747 4.25068,-3.63808 1.41689,-1.38059 2.83378,-2.92011 4.25068,-4.58182 1.41689,-1.66171 2.83378,-3.44622 4.25068,-5.31133 1.41689,-1.86511 2.83378,-3.81118 4.25067,-5.79249 1.4169,-1.98131 2.83379,-3.99793 4.25068,-6.00279 1.4169,-2.00487 2.83379,-3.99775 4.25068,-5.93243 1.41689,-1.934663 2.83379,-3.810628 4.25068,-5.584642 1.41689,-1.774013 2.83378,-3.445338 4.25068,-4.975745 1.41689,-1.530407 2.83378,-2.918944 4.25068,-4.134183 1.41689,-1.215239 2.83378,-2.256061 4.25067,-3.099311 1.4169,-0.843249 2.83379,-1.487687 4.25068,-1.919517 1.41689,-0.431829 2.83379,-0.649751 4.25068,-0.649969"
       id="path8241"
       inkscape:connector-curvature="0" />
    <text
       xml:space="preserve"
       style="font-size:18px;font-style:normal;font-variant:normal;font-weight:normal;font-stretch:normal;line-height:125%;letter-spacing:0px;word-spacing:0px;fill:#000000;fill-opacity:1;stroke:none;font-family:Sans;-inkscape-font-specification:Sans"
       x="105.14815"
       y="155.33395"
       id="text8245"
       sodipodi:linespacing="125%"><tspan
         sodipodi:role="line"
         id="tspan8247"
         x="105.14815"
         y="155.33395">periodic</tspan></text>
    <text
       xml:space="preserve"
       style="font-size:18px;font-style:normal;font-variant:normal;font-weight:normal;font-stretch:normal;line-height:125%;letter-spacing:0px;word-spacing:0px;fill:#000000;fill-opacity:1;stroke:none;font-family:Sans;-inkscape-font-specification:Sans"
       x="119.18428"
       y="247.81032"
       id="text8249"
       sodipodi:linespacing="125%"><tspan
         sodipodi:role="line"
         id="tspan8251"
         x="119.18428"
         y="247.81032">reflect</tspan></text>
    <text
       xml:space="preserve"
       style="font-size:18px;font-style:normal;font-variant:normal;font-weight:normal;font-stretch:normal;line-height:125%;letter-spacing:0px;word-spacing:0px;fill:#000000;fill-opacity:1;stroke:none;font-family:Sans;-inkscape-font-specification:Sans"
       x="110.43916"
       y="338.54205"
       id="text8253"
       sodipodi:linespacing="125%"><tspan
         sodipodi:role="line"
         id="tspan8255"
         x="110.43916"
         y="338.54205">outflow</tspan></text>
    <path
       style="fill:none;stroke:#000000;stroke-width:2;stroke-linecap:butt;stroke-linejoin:miter;stroke-miterlimit:4;stroke-opacity:1;stroke-dasharray:none"
       d="m 248.57198,171.58146 120.98636,56.75361"
       id="path8257"
       inkscape:connector-curvature="0" />
    <path
       inkscape:connector-curvature="0"
       id="path8265"
       d="M 433.81976,197.76589 369.52967,227.9238"
       style="fill:none;stroke:#ff0000;stroke-width:2;stroke-linecap:butt;stroke-linejoin:miter;stroke-miterlimit:4;stroke-opacity:1;stroke-dasharray:none"
       sodipodi:nodetypes="cc" />
    <path
       sodipodi:nodetypes="cc"
       style="fill:none;stroke:#ff0000;stroke-width:2;stroke-linecap:butt;stroke-linejoin:miter;stroke-miterlimit:4;stroke-opacity:1;stroke-dasharray:none"
       d="M 248.59348,171.55995 183.4378,202.1239"
       id="path8270"
       inkscape:connector-curvature="0" />
    <path
       inkscape:connector-curvature="0"
       id="path8272"
       title="t cos(t)"
       d="m 248.39639,261.94636 c 1.41689,2.2e-4 2.83379,0.21857 4.25068,0.64997 1.41689,0.43141 2.83378,1.07666 4.25068,1.91952 1.41689,0.84285 2.83378,1.88442 4.25067,3.09931 1.4169,1.21489 2.83379,2.60406 4.25068,4.13418 1.4169,1.53013 2.83379,3.20194 4.25068,4.97575 1.41689,1.77381 2.83379,3.65009 4.25068,5.58464 1.41689,1.93456 2.83379,3.92759 4.25068,5.93243 1.41689,2.00483 2.83378,4.02141 4.25068,6.00279 1.41689,1.98138 2.83378,3.92722 4.25067,5.79249 1.4169,1.86527 2.83379,3.64938 4.25068,5.31133 1.4169,1.66195 2.83379,3.20091 4.25068,4.58182 1.41689,1.38093 2.83379,2.60277 4.25068,3.63808 1.41689,1.03531 2.83379,1.88291 4.25068,2.52421 1.41689,0.64129 2.83378,1.07502 4.25068,1.29232 1.41689,0.2173 2.83378,0.21686 4.25067,0 1.4169,-0.21686 2.83379,-0.65143 4.25068,-1.29232 1.4169,-0.64089 2.83379,-1.48927 4.25068,-2.52421 1.41689,-1.03494 2.83379,-2.25747 4.25068,-3.63808 1.41689,-1.38059 2.83378,-2.92011 4.25068,-4.58182 1.41689,-1.66171 2.83378,-3.44622 4.25068,-5.31133 1.41689,-1.86511 2.83378,-3.81118 4.25067,-5.79249 1.4169,-1.98131 2.83379,-3.99793 4.25068,-6.00279 1.4169,-2.00487 2.83379,-3.99775 4.25068,-5.93243 1.41689,-1.93466 2.83379,-3.81063 4.25068,-5.58464 1.41689,-1.77402 2.83378,-3.44534 4.25068,-4.97575 1.41689,-1.53041 2.83378,-2.91894 4.25068,-4.13418 1.41689,-1.21524 2.83378,-2.25606 4.25067,-3.09931 1.4169,-0.84325 2.83379,-1.48769 4.25068,-1.91952 1.41689,-0.43183 2.83379,-0.64975 4.25068,-0.64997"
       style="fill:none;stroke:#000000;stroke-width:1.4882313;stroke-linecap:round;stroke-linejoin:round;stroke-miterlimit:4;stroke-opacity:1;stroke-dasharray:none;stroke-dashoffset:0" />
    <path
       style="fill:none;stroke:#ff0000;stroke-width:2;stroke-linecap:butt;stroke-linejoin:miter;stroke-miterlimit:4;stroke-opacity:1;stroke-dasharray:none"
       d="m 371.7581,261.7713 59.83325,0"
       id="path8274"
       inkscape:connector-curvature="0" />
    <path
       inkscape:connector-curvature="0"
       id="path8276"
       d="m 187.85883,261.7713 59.83325,0"
       style="fill:none;stroke:#ff0000;stroke-width:2;stroke-linecap:butt;stroke-linejoin:miter;stroke-miterlimit:4;stroke-opacity:1;stroke-dasharray:none" />
  </g>
</svg>
